<mxfile host="app.diagrams.net" modified="2023-12-07T14:52:08.011Z" agent="Mozilla/5.0 (Macintosh; Intel Mac OS X 10_15_7) AppleWebKit/537.36 (KHTML, like Gecko) Chrome/119.0.0.0 Safari/537.36" version="22.1.7" etag="3ZYOce4U0q5EzqD3rTLO" type="github">
  <diagram name="第 1 页" id="WW41NiQOHSA071YE7FGh">
    <mxGraphModel>
      <root>
        <mxCell id="0" />
        <mxCell id="1" parent="0" />
      </root>
    </mxGraphModel>
  </diagram>
</mxfile>
